<svg xmlns="http://www.w3.org/2000/svg" width="1200" height="750" viewBox="0 0 1200 750" role="img" aria-label="Observatory field journal">
  <defs><linearGradient id="bg" x2="1" y2="1"><stop stop-color="#20132f"/><stop offset="1" stop-color="#8c48c7"/></linearGradient><radialGradient id="halo"><stop stop-color="#f5a9ce" stop-opacity=".25"/><stop offset="1" stop-color="#f5a9ce" stop-opacity="0"/></radialGradient></defs>
  <rect width="1200" height="750" fill="url(#bg)"/><circle cx="780" cy="310" r="490" fill="url(#halo)"/><circle cx="366" cy="35" r="1" fill="#f5a9ce" opacity=".3"/><circle cx="539" cy="108" r="2" fill="#f5a9ce" opacity=".3"/><circle cx="712" cy="181" r="3" fill="#f5a9ce" opacity=".3"/><circle cx="885" cy="254" r="1" fill="#f5a9ce" opacity=".3"/><circle cx="1058" cy="327" r="2" fill="#f5a9ce" opacity=".3"/><circle cx="31" cy="400" r="3" fill="#f5a9ce" opacity=".3"/><circle cx="204" cy="473" r="1" fill="#f5a9ce" opacity=".3"/><circle cx="377" cy="546" r="2" fill="#f5a9ce" opacity=".3"/><circle cx="550" cy="619" r="3" fill="#f5a9ce" opacity=".3"/><circle cx="723" cy="692" r="1" fill="#f5a9ce" opacity=".3"/><circle cx="896" cy="55" r="2" fill="#f5a9ce" opacity=".3"/><circle cx="1069" cy="128" r="3" fill="#f5a9ce" opacity=".3"/><circle cx="42" cy="201" r="1" fill="#f5a9ce" opacity=".3"/><circle cx="215" cy="274" r="2" fill="#f5a9ce" opacity=".3"/><circle cx="388" cy="347" r="3" fill="#f5a9ce" opacity=".3"/><circle cx="561" cy="420" r="1" fill="#f5a9ce" opacity=".3"/><circle cx="734" cy="493" r="2" fill="#f5a9ce" opacity=".3"/><circle cx="907" cy="566" r="3" fill="#f5a9ce" opacity=".3"/><circle cx="1080" cy="639" r="1" fill="#f5a9ce" opacity=".3"/><circle cx="53" cy="2" r="2" fill="#f5a9ce" opacity=".3"/><circle cx="226" cy="75" r="3" fill="#f5a9ce" opacity=".3"/><circle cx="399" cy="148" r="1" fill="#f5a9ce" opacity=".3"/><circle cx="572" cy="221" r="2" fill="#f5a9ce" opacity=".3"/><circle cx="745" cy="294" r="3" fill="#f5a9ce" opacity=".3"/><circle cx="918" cy="367" r="1" fill="#f5a9ce" opacity=".3"/><circle cx="1091" cy="440" r="2" fill="#f5a9ce" opacity=".3"/><circle cx="64" cy="513" r="3" fill="#f5a9ce" opacity=".3"/><circle cx="237" cy="586" r="1" fill="#f5a9ce" opacity=".3"/>
  <g fill="none" stroke="#f5a9ce" opacity=".12"><circle cx="870" cy="365" r="300"/><circle cx="870" cy="365" r="235"/><path d="M0 650h1200M50 0v750"/></g>
  <g transform="translate(580 115) scale(.95)"><g fill="#f5a9ce"><path d="M132 80h275v350H132q-30 0-30-30V110q0-30 30-30Z"/><path d="M142 85v300m-36 15h302" stroke="#20132f" stroke-width="10"/><circle cx="274" cy="215" r="63" fill="none" stroke="#20132f" stroke-width="7"/><path d="m247 217 28-44 30 44-30 41Z" fill="#20132f"/></g></g>
  <text x="72" y="105" fill="#f5a9ce" font-family="Arial,sans-serif" font-size="18" letter-spacing="5">ANIME / MERCHANDISE</text>
  <rect x="72" y="167" width="62" height="5" rx="2" fill="#f5a9ce"/>
  <text fill="#fff" font-family="Arial,sans-serif" font-size="43" font-weight="700"><tspan x="72" y="270">Observatory field journal</tspan></text>
  <text x="72" y="510" fill="#f5a9ce" font-family="Arial,sans-serif" font-size="19">Lumen Crossing</text>
  <text x="72" y="687" fill="#fff" opacity=".65" font-family="Arial,sans-serif" font-size="14" letter-spacing="3">FAN HUB / ORIGINAL EDITORIAL ART</text></svg>