<svg xmlns="http://www.w3.org/2000/svg" width="1200" height="750" viewBox="0 0 1200 750" role="img" aria-label="The mask silhouette">
  <defs><linearGradient id="bg" x2="1" y2="1"><stop stop-color="#251b39"/><stop offset="1" stop-color="#8156c9"/></linearGradient><radialGradient id="halo"><stop stop-color="#c5b5ff" stop-opacity=".25"/><stop offset="1" stop-color="#c5b5ff" stop-opacity="0"/></radialGradient></defs>
  <rect width="1200" height="750" fill="url(#bg)"/><circle cx="900" cy="310" r="490" fill="url(#halo)"/><circle cx="427" cy="35" r="1" fill="#c5b5ff" opacity=".3"/><circle cx="600" cy="108" r="2" fill="#c5b5ff" opacity=".3"/><circle cx="773" cy="181" r="3" fill="#c5b5ff" opacity=".3"/><circle cx="946" cy="254" r="1" fill="#c5b5ff" opacity=".3"/><circle cx="1119" cy="327" r="2" fill="#c5b5ff" opacity=".3"/><circle cx="92" cy="400" r="3" fill="#c5b5ff" opacity=".3"/><circle cx="265" cy="473" r="1" fill="#c5b5ff" opacity=".3"/><circle cx="438" cy="546" r="2" fill="#c5b5ff" opacity=".3"/><circle cx="611" cy="619" r="3" fill="#c5b5ff" opacity=".3"/><circle cx="784" cy="692" r="1" fill="#c5b5ff" opacity=".3"/><circle cx="957" cy="55" r="2" fill="#c5b5ff" opacity=".3"/><circle cx="1130" cy="128" r="3" fill="#c5b5ff" opacity=".3"/><circle cx="103" cy="201" r="1" fill="#c5b5ff" opacity=".3"/><circle cx="276" cy="274" r="2" fill="#c5b5ff" opacity=".3"/><circle cx="449" cy="347" r="3" fill="#c5b5ff" opacity=".3"/><circle cx="622" cy="420" r="1" fill="#c5b5ff" opacity=".3"/><circle cx="795" cy="493" r="2" fill="#c5b5ff" opacity=".3"/><circle cx="968" cy="566" r="3" fill="#c5b5ff" opacity=".3"/><circle cx="1141" cy="639" r="1" fill="#c5b5ff" opacity=".3"/><circle cx="114" cy="2" r="2" fill="#c5b5ff" opacity=".3"/><circle cx="287" cy="75" r="3" fill="#c5b5ff" opacity=".3"/><circle cx="460" cy="148" r="1" fill="#c5b5ff" opacity=".3"/><circle cx="633" cy="221" r="2" fill="#c5b5ff" opacity=".3"/><circle cx="806" cy="294" r="3" fill="#c5b5ff" opacity=".3"/><circle cx="979" cy="367" r="1" fill="#c5b5ff" opacity=".3"/><circle cx="1152" cy="440" r="2" fill="#c5b5ff" opacity=".3"/><circle cx="125" cy="513" r="3" fill="#c5b5ff" opacity=".3"/><circle cx="298" cy="586" r="1" fill="#c5b5ff" opacity=".3"/>
  <g fill="none" stroke="#c5b5ff" opacity=".12"><circle cx="870" cy="365" r="300"/><circle cx="870" cy="365" r="235"/><path d="M0 650h1200M50 0v750"/></g>
  <g transform="translate(580 115) scale(.95)"><g fill="#c5b5ff"><path d="M80 160q100-42 200 18 100-60 200-18l-28 148q-57 100-172 32-115 68-172-32Z"/><path d="M133 227q50-45 105 6-55 58-105-6m190 6q55-51 105-6-50 64-105 6" fill="#251b39"/><path d="m280 178-15 135h30Z" fill="#251b39" opacity=".5"/></g></g>
  <text x="72" y="105" fill="#c5b5ff" font-family="Arial,sans-serif" font-size="18" letter-spacing="5">COSPLAY / ART STUDY</text>
  <rect x="72" y="167" width="62" height="5" rx="2" fill="#c5b5ff"/>
  <text fill="#fff" font-family="Arial,sans-serif" font-size="43" font-weight="700"><tspan x="72" y="270">The mask silhouette</tspan></text>
  <text x="72" y="510" fill="#c5b5ff" font-family="Arial,sans-serif" font-size="19">PLATE 1 / Aether Workshop</text>
  <text x="72" y="687" fill="#fff" opacity=".65" font-family="Arial,sans-serif" font-size="14" letter-spacing="3">FAN HUB / ORIGINAL EDITORIAL ART</text></svg>