<svg xmlns="http://www.w3.org/2000/svg" width="1200" height="750" viewBox="0 0 1200 750" role="img" aria-label="Aether detachable cape concept">
  <defs><linearGradient id="bg" x2="1" y2="1"><stop stop-color="#251b39"/><stop offset="1" stop-color="#8156c9"/></linearGradient><radialGradient id="halo"><stop stop-color="#c5b5ff" stop-opacity=".25"/><stop offset="1" stop-color="#c5b5ff" stop-opacity="0"/></radialGradient></defs>
  <rect width="1200" height="750" fill="url(#bg)"/><circle cx="900" cy="310" r="490" fill="url(#halo)"/><circle cx="955" cy="35" r="1" fill="#c5b5ff" opacity=".3"/><circle cx="1128" cy="108" r="2" fill="#c5b5ff" opacity=".3"/><circle cx="101" cy="181" r="3" fill="#c5b5ff" opacity=".3"/><circle cx="274" cy="254" r="1" fill="#c5b5ff" opacity=".3"/><circle cx="447" cy="327" r="2" fill="#c5b5ff" opacity=".3"/><circle cx="620" cy="400" r="3" fill="#c5b5ff" opacity=".3"/><circle cx="793" cy="473" r="1" fill="#c5b5ff" opacity=".3"/><circle cx="966" cy="546" r="2" fill="#c5b5ff" opacity=".3"/><circle cx="1139" cy="619" r="3" fill="#c5b5ff" opacity=".3"/><circle cx="112" cy="692" r="1" fill="#c5b5ff" opacity=".3"/><circle cx="285" cy="55" r="2" fill="#c5b5ff" opacity=".3"/><circle cx="458" cy="128" r="3" fill="#c5b5ff" opacity=".3"/><circle cx="631" cy="201" r="1" fill="#c5b5ff" opacity=".3"/><circle cx="804" cy="274" r="2" fill="#c5b5ff" opacity=".3"/><circle cx="977" cy="347" r="3" fill="#c5b5ff" opacity=".3"/><circle cx="1150" cy="420" r="1" fill="#c5b5ff" opacity=".3"/><circle cx="123" cy="493" r="2" fill="#c5b5ff" opacity=".3"/><circle cx="296" cy="566" r="3" fill="#c5b5ff" opacity=".3"/><circle cx="469" cy="639" r="1" fill="#c5b5ff" opacity=".3"/><circle cx="642" cy="2" r="2" fill="#c5b5ff" opacity=".3"/><circle cx="815" cy="75" r="3" fill="#c5b5ff" opacity=".3"/><circle cx="988" cy="148" r="1" fill="#c5b5ff" opacity=".3"/><circle cx="1161" cy="221" r="2" fill="#c5b5ff" opacity=".3"/><circle cx="134" cy="294" r="3" fill="#c5b5ff" opacity=".3"/><circle cx="307" cy="367" r="1" fill="#c5b5ff" opacity=".3"/><circle cx="480" cy="440" r="2" fill="#c5b5ff" opacity=".3"/><circle cx="653" cy="513" r="3" fill="#c5b5ff" opacity=".3"/><circle cx="826" cy="586" r="1" fill="#c5b5ff" opacity=".3"/>
  <g fill="none" stroke="#c5b5ff" opacity=".12"><circle cx="870" cy="365" r="300"/><circle cx="870" cy="365" r="235"/><path d="M0 650h1200M50 0v750"/></g>
  <g transform="translate(580 115) scale(.95)"><g fill="#c5b5ff"><path d="M209 85q70 45 142 0l146 320q-217 90-434 0Z"/><path d="M280 130v300M209 85l71 105 71-105" fill="none" stroke="#251b39" stroke-width="10"/><circle cx="280" cy="169" r="22" fill="#251b39"/></g></g>
  <text x="72" y="105" fill="#c5b5ff" font-family="Arial,sans-serif" font-size="18" letter-spacing="5">COSPLAY / MERCHANDISE</text>
  <rect x="72" y="167" width="62" height="5" rx="2" fill="#c5b5ff"/>
  <text fill="#fff" font-family="Arial,sans-serif" font-size="43" font-weight="700"><tspan x="72" y="270">Aether detachable cape</tspan><tspan x="72" y="327">concept</tspan></text>
  <text x="72" y="510" fill="#c5b5ff" font-family="Arial,sans-serif" font-size="19">Aether Workshop</text>
  <text x="72" y="687" fill="#fff" opacity=".65" font-family="Arial,sans-serif" font-size="14" letter-spacing="3">FAN HUB / ORIGINAL EDITORIAL ART</text></svg>