<svg xmlns="http://www.w3.org/2000/svg" width="1200" height="750" viewBox="0 0 1200 750" role="img" aria-label="Relay desk mat">
  <defs><linearGradient id="bg" x2="1" y2="1"><stop stop-color="#092934"/><stop offset="1" stop-color="#198ca1"/></linearGradient><radialGradient id="halo"><stop stop-color="#80f4ca" stop-opacity=".25"/><stop offset="1" stop-color="#80f4ca" stop-opacity="0"/></radialGradient></defs>
  <rect width="1200" height="750" fill="url(#bg)"/><circle cx="900" cy="310" r="490" fill="url(#halo)"/><circle cx="793" cy="35" r="1" fill="#80f4ca" opacity=".3"/><circle cx="966" cy="108" r="2" fill="#80f4ca" opacity=".3"/><circle cx="1139" cy="181" r="3" fill="#80f4ca" opacity=".3"/><circle cx="112" cy="254" r="1" fill="#80f4ca" opacity=".3"/><circle cx="285" cy="327" r="2" fill="#80f4ca" opacity=".3"/><circle cx="458" cy="400" r="3" fill="#80f4ca" opacity=".3"/><circle cx="631" cy="473" r="1" fill="#80f4ca" opacity=".3"/><circle cx="804" cy="546" r="2" fill="#80f4ca" opacity=".3"/><circle cx="977" cy="619" r="3" fill="#80f4ca" opacity=".3"/><circle cx="1150" cy="692" r="1" fill="#80f4ca" opacity=".3"/><circle cx="123" cy="55" r="2" fill="#80f4ca" opacity=".3"/><circle cx="296" cy="128" r="3" fill="#80f4ca" opacity=".3"/><circle cx="469" cy="201" r="1" fill="#80f4ca" opacity=".3"/><circle cx="642" cy="274" r="2" fill="#80f4ca" opacity=".3"/><circle cx="815" cy="347" r="3" fill="#80f4ca" opacity=".3"/><circle cx="988" cy="420" r="1" fill="#80f4ca" opacity=".3"/><circle cx="1161" cy="493" r="2" fill="#80f4ca" opacity=".3"/><circle cx="134" cy="566" r="3" fill="#80f4ca" opacity=".3"/><circle cx="307" cy="639" r="1" fill="#80f4ca" opacity=".3"/><circle cx="480" cy="2" r="2" fill="#80f4ca" opacity=".3"/><circle cx="653" cy="75" r="3" fill="#80f4ca" opacity=".3"/><circle cx="826" cy="148" r="1" fill="#80f4ca" opacity=".3"/><circle cx="999" cy="221" r="2" fill="#80f4ca" opacity=".3"/><circle cx="1172" cy="294" r="3" fill="#80f4ca" opacity=".3"/><circle cx="145" cy="367" r="1" fill="#80f4ca" opacity=".3"/><circle cx="318" cy="440" r="2" fill="#80f4ca" opacity=".3"/><circle cx="491" cy="513" r="3" fill="#80f4ca" opacity=".3"/><circle cx="664" cy="586" r="1" fill="#80f4ca" opacity=".3"/>
  <g fill="none" stroke="#80f4ca" opacity=".12"><circle cx="870" cy="365" r="300"/><circle cx="870" cy="365" r="235"/><path d="M0 650h1200M50 0v750"/></g>
  <g transform="translate(580 115) scale(.95)"><g fill="#80f4ca"><path d="m52 203 333-115 133 207-336 120Z"/><g stroke="#092934" stroke-width="4" opacity=".5"><path d="m100 217 330-114m-304 151 330-113m-303 151 330-113m-300 148 330-114M135 175l127 207m-57-231 127 207m-57-231 127 207"/></g></g></g>
  <text x="72" y="105" fill="#80f4ca" font-family="Arial,sans-serif" font-size="18" letter-spacing="5">GAMING / MERCHANDISE</text>
  <rect x="72" y="167" width="62" height="5" rx="2" fill="#80f4ca"/>
  <text fill="#fff" font-family="Arial,sans-serif" font-size="43" font-weight="700"><tspan x="72" y="270">Relay desk mat</tspan></text>
  <text x="72" y="510" fill="#80f4ca" font-family="Arial,sans-serif" font-size="19">Relay Frontier</text>
  <text x="72" y="687" fill="#fff" opacity=".65" font-family="Arial,sans-serif" font-size="14" letter-spacing="3">FAN HUB / ORIGINAL EDITORIAL ART</text></svg>