<svg xmlns="http://www.w3.org/2000/svg" width="1200" height="750" viewBox="0 0 1200 750" role="img" aria-label="Stage glow">
  <defs><linearGradient id="bg" x2="1" y2="1"><stop stop-color="#321530"/><stop offset="1" stop-color="#c54596"/></linearGradient><radialGradient id="halo"><stop stop-color="#ffb3e2" stop-opacity=".25"/><stop offset="1" stop-color="#ffb3e2" stop-opacity="0"/></radialGradient></defs>
  <rect width="1200" height="750" fill="url(#bg)"/><circle cx="780" cy="310" r="490" fill="url(#halo)"/><circle cx="244" cy="35" r="1" fill="#ffb3e2" opacity=".3"/><circle cx="417" cy="108" r="2" fill="#ffb3e2" opacity=".3"/><circle cx="590" cy="181" r="3" fill="#ffb3e2" opacity=".3"/><circle cx="763" cy="254" r="1" fill="#ffb3e2" opacity=".3"/><circle cx="936" cy="327" r="2" fill="#ffb3e2" opacity=".3"/><circle cx="1109" cy="400" r="3" fill="#ffb3e2" opacity=".3"/><circle cx="82" cy="473" r="1" fill="#ffb3e2" opacity=".3"/><circle cx="255" cy="546" r="2" fill="#ffb3e2" opacity=".3"/><circle cx="428" cy="619" r="3" fill="#ffb3e2" opacity=".3"/><circle cx="601" cy="692" r="1" fill="#ffb3e2" opacity=".3"/><circle cx="774" cy="55" r="2" fill="#ffb3e2" opacity=".3"/><circle cx="947" cy="128" r="3" fill="#ffb3e2" opacity=".3"/><circle cx="1120" cy="201" r="1" fill="#ffb3e2" opacity=".3"/><circle cx="93" cy="274" r="2" fill="#ffb3e2" opacity=".3"/><circle cx="266" cy="347" r="3" fill="#ffb3e2" opacity=".3"/><circle cx="439" cy="420" r="1" fill="#ffb3e2" opacity=".3"/><circle cx="612" cy="493" r="2" fill="#ffb3e2" opacity=".3"/><circle cx="785" cy="566" r="3" fill="#ffb3e2" opacity=".3"/><circle cx="958" cy="639" r="1" fill="#ffb3e2" opacity=".3"/><circle cx="1131" cy="2" r="2" fill="#ffb3e2" opacity=".3"/><circle cx="104" cy="75" r="3" fill="#ffb3e2" opacity=".3"/><circle cx="277" cy="148" r="1" fill="#ffb3e2" opacity=".3"/><circle cx="450" cy="221" r="2" fill="#ffb3e2" opacity=".3"/><circle cx="623" cy="294" r="3" fill="#ffb3e2" opacity=".3"/><circle cx="796" cy="367" r="1" fill="#ffb3e2" opacity=".3"/><circle cx="969" cy="440" r="2" fill="#ffb3e2" opacity=".3"/><circle cx="1142" cy="513" r="3" fill="#ffb3e2" opacity=".3"/><circle cx="115" cy="586" r="1" fill="#ffb3e2" opacity=".3"/>
  <g fill="none" stroke="#ffb3e2" opacity=".12"><circle cx="870" cy="365" r="300"/><circle cx="870" cy="365" r="235"/><path d="M0 650h1200M50 0v750"/></g>
  <g transform="translate(580 115) scale(.95)"><g fill="#ffb3e2"><path d="M55 249h50m30-47v100m37-148v194m37-234v274m38-300v326m38-348v370m38-320v270m38-217v164m38-126v90m38-51h45" fill="none" stroke="#ffb3e2" stroke-width="18" stroke-linecap="round"/></g></g>
  <text x="72" y="105" fill="#ffb3e2" font-family="Arial,sans-serif" font-size="18" letter-spacing="5">K-POP / ART STUDY</text>
  <rect x="72" y="167" width="62" height="5" rx="2" fill="#ffb3e2"/>
  <text fill="#fff" font-family="Arial,sans-serif" font-size="43" font-weight="700"><tspan x="72" y="270">Stage glow</tspan></text>
  <text x="72" y="510" fill="#ffb3e2" font-family="Arial,sans-serif" font-size="19">PLATE 1 / Prism Avenue</text>
  <text x="72" y="687" fill="#fff" opacity=".65" font-family="Arial,sans-serif" font-size="14" letter-spacing="3">FAN HUB / ORIGINAL EDITORIAL ART</text></svg>