<svg xmlns="http://www.w3.org/2000/svg" width="1200" height="750" viewBox="0 0 1200 750" role="img" aria-label="Ren Ito — the paper-boat messenger">
  <defs><linearGradient id="bg" x2="1" y2="1"><stop stop-color="#19282e"/><stop offset="1" stop-color="#819b9c"/></linearGradient><radialGradient id="halo"><stop stop-color="#e9ece5" stop-opacity=".25"/><stop offset="1" stop-color="#e9ece5" stop-opacity="0"/></radialGradient></defs>
  <rect width="1200" height="750" fill="url(#bg)"/><circle cx="780" cy="310" r="490" fill="url(#halo)"/><circle cx="284" cy="35" r="1" fill="#e9ece5" opacity=".3"/><circle cx="457" cy="108" r="2" fill="#e9ece5" opacity=".3"/><circle cx="630" cy="181" r="3" fill="#e9ece5" opacity=".3"/><circle cx="803" cy="254" r="1" fill="#e9ece5" opacity=".3"/><circle cx="976" cy="327" r="2" fill="#e9ece5" opacity=".3"/><circle cx="1149" cy="400" r="3" fill="#e9ece5" opacity=".3"/><circle cx="122" cy="473" r="1" fill="#e9ece5" opacity=".3"/><circle cx="295" cy="546" r="2" fill="#e9ece5" opacity=".3"/><circle cx="468" cy="619" r="3" fill="#e9ece5" opacity=".3"/><circle cx="641" cy="692" r="1" fill="#e9ece5" opacity=".3"/><circle cx="814" cy="55" r="2" fill="#e9ece5" opacity=".3"/><circle cx="987" cy="128" r="3" fill="#e9ece5" opacity=".3"/><circle cx="1160" cy="201" r="1" fill="#e9ece5" opacity=".3"/><circle cx="133" cy="274" r="2" fill="#e9ece5" opacity=".3"/><circle cx="306" cy="347" r="3" fill="#e9ece5" opacity=".3"/><circle cx="479" cy="420" r="1" fill="#e9ece5" opacity=".3"/><circle cx="652" cy="493" r="2" fill="#e9ece5" opacity=".3"/><circle cx="825" cy="566" r="3" fill="#e9ece5" opacity=".3"/><circle cx="998" cy="639" r="1" fill="#e9ece5" opacity=".3"/><circle cx="1171" cy="2" r="2" fill="#e9ece5" opacity=".3"/><circle cx="144" cy="75" r="3" fill="#e9ece5" opacity=".3"/><circle cx="317" cy="148" r="1" fill="#e9ece5" opacity=".3"/><circle cx="490" cy="221" r="2" fill="#e9ece5" opacity=".3"/><circle cx="663" cy="294" r="3" fill="#e9ece5" opacity=".3"/><circle cx="836" cy="367" r="1" fill="#e9ece5" opacity=".3"/><circle cx="1009" cy="440" r="2" fill="#e9ece5" opacity=".3"/><circle cx="1182" cy="513" r="3" fill="#e9ece5" opacity=".3"/><circle cx="155" cy="586" r="1" fill="#e9ece5" opacity=".3"/>
  <g fill="none" stroke="#e9ece5" opacity=".12"><circle cx="870" cy="365" r="300"/><circle cx="870" cy="365" r="235"/><path d="M0 650h1200M50 0v750"/></g>
  <g transform="translate(570 115) scale(.95)"><path d="M87 490q20-193 193-193t193 193" fill="#819b9c"/><path d="m205 300 75 80 75-80-25 190H230Z" fill="#e9ece5"/><rect x="251" y="232" width="59" height="88" rx="20" fill="#be8974"/><ellipse cx="280" cy="175" rx="91" ry="112" fill="#dfb294"/><path d="M183 157Q169 41 277 34q118 12 108 135l-45-65-123 46Z" fill="#19282e"/><path d="M220 184h24m72 0h24m-73 60q13 9 29 0" stroke="#19282e" stroke-width="7" stroke-linecap="round"/><path d="m118 468 22-96m280 0 22 96" stroke="#e9ece5" stroke-width="5"/><g transform="translate(347 289) scale(.36)"><g fill="#e9ece5"><path d="m65 270 205-167 225 167-92 135H154Z"/><path d="m65 270 275-56-70-111 10 302m60-191 155 56H65" fill="none" stroke="#19282e" stroke-width="7"/><path d="M70 438q70-30 140 0t140 0t140 0" fill="none" stroke="#e9ece5" stroke-width="5"/></g></g></g>
  <text x="72" y="105" fill="#e9ece5" font-family="Arial,sans-serif" font-size="18" letter-spacing="5">MANGA / CHARACTER</text>
  <rect x="72" y="167" width="62" height="5" rx="2" fill="#e9ece5"/>
  <text fill="#fff" font-family="Arial,sans-serif" font-size="43" font-weight="700"><tspan x="72" y="270">Ren Ito — the paper-boat</tspan><tspan x="72" y="327">messenger</tspan></text>
  <text x="72" y="510" fill="#e9ece5" font-family="Arial,sans-serif" font-size="19">Paper Harbor</text>
  <text x="72" y="687" fill="#fff" opacity=".65" font-family="Arial,sans-serif" font-size="14" letter-spacing="3">FAN HUB / ORIGINAL EDITORIAL ART</text></svg>