<svg xmlns="http://www.w3.org/2000/svg" width="1200" height="750" viewBox="0 0 1200 750" role="img" aria-label="The empty control room">
  <defs><linearGradient id="bg" x2="1" y2="1"><stop stop-color="#121e3a"/><stop offset="1" stop-color="#586cd4"/></linearGradient><radialGradient id="halo"><stop stop-color="#a6c7ff" stop-opacity=".25"/><stop offset="1" stop-color="#a6c7ff" stop-opacity="0"/></radialGradient></defs>
  <rect width="1200" height="750" fill="url(#bg)"/><circle cx="900" cy="310" r="490" fill="url(#halo)"/><circle cx="183" cy="35" r="1" fill="#a6c7ff" opacity=".3"/><circle cx="356" cy="108" r="2" fill="#a6c7ff" opacity=".3"/><circle cx="529" cy="181" r="3" fill="#a6c7ff" opacity=".3"/><circle cx="702" cy="254" r="1" fill="#a6c7ff" opacity=".3"/><circle cx="875" cy="327" r="2" fill="#a6c7ff" opacity=".3"/><circle cx="1048" cy="400" r="3" fill="#a6c7ff" opacity=".3"/><circle cx="21" cy="473" r="1" fill="#a6c7ff" opacity=".3"/><circle cx="194" cy="546" r="2" fill="#a6c7ff" opacity=".3"/><circle cx="367" cy="619" r="3" fill="#a6c7ff" opacity=".3"/><circle cx="540" cy="692" r="1" fill="#a6c7ff" opacity=".3"/><circle cx="713" cy="55" r="2" fill="#a6c7ff" opacity=".3"/><circle cx="886" cy="128" r="3" fill="#a6c7ff" opacity=".3"/><circle cx="1059" cy="201" r="1" fill="#a6c7ff" opacity=".3"/><circle cx="32" cy="274" r="2" fill="#a6c7ff" opacity=".3"/><circle cx="205" cy="347" r="3" fill="#a6c7ff" opacity=".3"/><circle cx="378" cy="420" r="1" fill="#a6c7ff" opacity=".3"/><circle cx="551" cy="493" r="2" fill="#a6c7ff" opacity=".3"/><circle cx="724" cy="566" r="3" fill="#a6c7ff" opacity=".3"/><circle cx="897" cy="639" r="1" fill="#a6c7ff" opacity=".3"/><circle cx="1070" cy="2" r="2" fill="#a6c7ff" opacity=".3"/><circle cx="43" cy="75" r="3" fill="#a6c7ff" opacity=".3"/><circle cx="216" cy="148" r="1" fill="#a6c7ff" opacity=".3"/><circle cx="389" cy="221" r="2" fill="#a6c7ff" opacity=".3"/><circle cx="562" cy="294" r="3" fill="#a6c7ff" opacity=".3"/><circle cx="735" cy="367" r="1" fill="#a6c7ff" opacity=".3"/><circle cx="908" cy="440" r="2" fill="#a6c7ff" opacity=".3"/><circle cx="1081" cy="513" r="3" fill="#a6c7ff" opacity=".3"/><circle cx="54" cy="586" r="1" fill="#a6c7ff" opacity=".3"/>
  <g fill="none" stroke="#a6c7ff" opacity=".12"><circle cx="870" cy="365" r="300"/><circle cx="870" cy="365" r="235"/><path d="M0 650h1200M50 0v750"/></g>
  <g transform="translate(580 115) scale(.95)"><g fill="#a6c7ff"><rect x="70" y="100" width="420" height="265" rx="25"/><rect x="98" y="127" width="364" height="208" rx="10" fill="#121e3a"/><path d="M220 412h120m-60-47v47" stroke="#a6c7ff" stroke-width="18"/><circle cx="280" cy="230" r="70" fill="none" stroke="#a6c7ff" stroke-width="6"/><path d="M280 175v60l43 27" fill="none" stroke="#a6c7ff" stroke-width="10"/></g></g>
  <text x="72" y="105" fill="#a6c7ff" font-family="Arial,sans-serif" font-size="18" letter-spacing="5">TV SHOWS / ART STUDY</text>
  <rect x="72" y="167" width="62" height="5" rx="2" fill="#a6c7ff"/>
  <text fill="#fff" font-family="Arial,sans-serif" font-size="43" font-weight="700"><tspan x="72" y="270">The empty control room</tspan></text>
  <text x="72" y="510" fill="#a6c7ff" font-family="Arial,sans-serif" font-size="19">PLATE 1 / Archive Nine</text>
  <text x="72" y="687" fill="#fff" opacity=".65" font-family="Arial,sans-serif" font-size="14" letter-spacing="3">FAN HUB / ORIGINAL EDITORIAL ART</text></svg>